# xmcd
#
# Track frame offsets: 
#        150
#        16634
#        34371
#        53300
#        69611
#        87112
#        105657
#        124964
#        143709
#        164606
#        184693
#        204380
#        221506
#
# Disc length: 3184 seconds
#
# Revision: 3
# Processed by: cddbd v1.5.2PL0 Copyright (c) Steve Scherf et al.
# Submitted via: ExactAudioCopy v1.3
#
DISCID=ae0c6e0d
DTITLE=Black Stone Cherry - Folkore And Superstition
DYEAR=2008
DGENRE=Hard Rock, Blues Rock
TTITLE0=Blind Man
TTITLE1=Please Come In
TTITLE2=Reverend Wrinkle
TTITLE3=Soulcreek
TTITLE4=Things My Father Said
TTITLE5=The Bitter End
TTITLE6=Long Sleeves
TTITLE7=Peace Is Free
TTITLE8=Devil's Queen
TTITLE9=The Key
TTITLE10=You
TTITLE11=Sunrise
TTITLE12=Ghost Of Floyd Collins
EXTD=
EXTT0=
EXTT1=
EXTT2=
EXTT3=
EXTT4=
EXTT5=
EXTT6=
EXTT7=
EXTT8=
EXTT9=
EXTT10=
EXTT11=
EXTT12=
PLAYORDER=
